<svg width="30" height="30" viewBox="0 0 30 30" fill="none" xmlns="http://www.w3.org/2000/svg">
<path fill-rule="evenodd" clip-rule="evenodd" d="M13.5263 2C10.4693 2 7.53758 3.21438 5.37598 5.37598C3.21438 7.53758 2 10.4693 2 13.5263C2 16.5833 3.21438 19.515 5.37598 21.6767C7.53758 23.8383 10.4693 25.0526 13.5263 25.0526C16.5833 25.0526 19.515 23.8383 21.6767 21.6767C23.8383 19.515 25.0526 16.5833 25.0526 13.5263C25.0526 10.4693 23.8383 7.53758 21.6767 5.37598C19.515 3.21438 16.5833 2 13.5263 2ZM3.96177 3.96177C6.49844 1.42509 9.93891 0 13.5263 0C17.1137 0 20.5542 1.42509 23.0909 3.96177C25.6275 6.49844 27.0526 9.93891 27.0526 13.5263C27.0526 16.7764 25.883 19.9059 23.7767 22.3519L29.7077 28.2935L28.2923 29.7065L22.3633 23.7669C19.9155 25.8793 16.7814 27.0526 13.5263 27.0526C9.93891 27.0526 6.49844 25.6275 3.96177 23.0909C1.42509 20.5542 0 17.1137 0 13.5263C0 9.93891 1.42509 6.49844 3.96177 3.96177Z" fill="#828282"/>
</svg>
