<svg width="28" height="24" viewBox="0 0 28 24" fill="none" xmlns="http://www.w3.org/2000/svg">
<path fill-rule="evenodd" clip-rule="evenodd" d="M15.5999 18.8915V13.887C15.5999 13.2376 15.8256 12.6083 16.2385 12.107L24.5619 2H4.23786L12.5613 12.107C12.9741 12.6083 13.1999 13.2376 13.1999 13.887V20.3915L15.5999 18.8915ZM12.4239 23.235C11.8911 23.568 11.1999 23.1849 11.1999 22.5566V13.887C11.1999 13.7015 11.1354 13.5217 11.0174 13.3784L1.07753 1.30857C0.647733 0.786668 1.01898 0 1.69508 0H27.1047C27.7808 0 28.152 0.786667 27.7222 1.30857L17.7823 13.3784C17.6644 13.5217 17.5999 13.7015 17.5999 13.887V19.5566C17.5999 19.8324 17.4578 20.0888 17.2239 20.235L12.4239 23.235Z" fill="#828282"/>
</svg>
